<?xml version="1.0" standalone="no"?>
<!DOCTYPE svg PUBLIC "-//W3C//DTD SVG 20010904//EN"
 "http://www.w3.org/TR/2001/REC-SVG-20010904/DTD/svg10.dtd">
<svg version="1.0" xmlns="http://www.w3.org/2000/svg"
 width="151.000000pt" height="151.000000pt" viewBox="0 0 151.000000 151.000000"
 preserveAspectRatio="xMidYMid meet">
<metadata>
Created by potrace 1.14, written by Peter Selinger 2001-2017
</metadata>
<g transform="translate(0.000000,151.000000) scale(0.100000,-0.100000)"
fill="#000000" stroke="none">
<path d="M888 1488 c-2 -13 -1 -40 1 -61 l3 -38 56 3 c50 3 57 6 62 27 3 14 4
40 2 58 l-4 33 -58 0 c-53 0 -59 -2 -62 -22z"/>
<path d="M695 1319 c-16 -11 -132 -78 -257 -151 l-228 -131 40 -25 41 -24 42
22 c92 48 392 224 399 234 10 14 10 84 1 89 -5 2 -21 -4 -38 -14z"/>
<path d="M1082 1317 c-4 -7 -7 -18 -6 -24 1 -7 2 -19 3 -27 1 -18 31 -25 59
-15 18 7 21 14 18 35 -3 15 -8 29 -11 32 -11 11 -54 10 -63 -1z"/>
<path d="M1249 1282 c-5 -31 -4 -104 1 -113 4 -6 31 -9 61 -7 l54 3 0 60 0 60
-57 2 c-32 2 -59 -1 -59 -5z"/>
<path d="M867 1262 c-14 -3 -17 -12 -15 -40 3 -38 9 -41 68 -33 11 1 14 71 3
72 -5 0 -15 2 -23 3 -8 1 -23 1 -33 -2z"/>
<path d="M207 1012 c-3 -4 -4 -141 -4 -304 0 -337 -8 -303 92 -360 33 -19 105
-61 160 -93 55 -32 120 -69 145 -83 25 -14 62 -36 82 -49 21 -12 42 -23 48
-23 11 0 13 69 2 87 -4 6 -47 35 -97 63 -49 29 -146 85 -215 125 l-125 72 -5
263 -5 263 -37 23 c-20 13 -39 20 -41 16z"/>
<path d="M1247 994 c-27 -18 -37 -32 -37 -52 -1 -15 0 -126 0 -248 1 -198 -1
-223 -17 -241 -10 -12 -106 -71 -213 -133 -107 -61 -201 -117 -209 -125 -15
-15 -22 -67 -11 -85 5 -8 84 33 247 127 132 76 250 145 262 153 22 15 22 16
21 319 0 168 -2 306 -3 308 -2 1 -20 -9 -40 -23z"/>
<path d="M430 928 l0 -58 60 0 60 0 0 -203 0 -203 65 -47 65 -47 0 130 c0 79
4 130 10 131 6 1 26 1 45 1 19 0 41 0 49 -1 11 -1 14 -26 16 -113 3 -148 3
-148 10 -148 3 0 33 26 67 58 l63 57 1 73 c2 79 -4 73 77 75 l32 1 0 62 0 63
-122 0 c-68 0 -150 0 -184 0 l-61 1 2 53 c1 28 3 54 4 57 0 3 82 5 181 4 l180
-1 0 57 0 57 -310 0 -310 0 0 -59z"/>
</g>
</svg>
