<svg width="295" height="87" viewBox="0 0 295 87" fill="none" xmlns="http://www.w3.org/2000/svg">
<path d="M52.09 25.7496L66.3793 69.7287H48.4417L44.5907 75.327H74.132L56.1944 20.1513H42.7158L37.294 25.7496L31.4161 20.1513H19.6098L0 75.327H29.744L25.893 69.7287H7.95538L23.6128 25.7496H52.09Z" fill="#D47559"/>
<path d="M133.972 25.328V32.56H122.068V70H113.108V32.56H101.204V25.328H133.972ZM168.094 25.328V32.56H149.47V44.016H163.742V51.12H149.47V70H140.51V25.328H168.094ZM204.847 25.328V32.56H192.943V70H183.983V32.56H172.079V25.328H204.847ZM244.345 51.504C244.345 52.784 244.259 53.936 244.089 54.96H218.169C218.382 57.52 219.278 59.5253 220.857 60.976C222.435 62.4267 224.377 63.152 226.681 63.152C230.009 63.152 232.377 61.7227 233.785 58.864H243.449C242.425 62.2773 240.462 65.0933 237.561 67.312C234.659 69.488 231.097 70.576 226.873 70.576C223.459 70.576 220.387 69.8293 217.657 68.336C214.969 66.8 212.857 64.6453 211.321 61.872C209.827 59.0987 209.081 55.8987 209.081 52.272C209.081 48.6027 209.827 45.3813 211.321 42.608C212.814 39.8347 214.905 37.7013 217.593 36.208C220.281 34.7147 223.374 33.968 226.873 33.968C230.243 33.968 233.251 34.6933 235.897 36.144C238.585 37.5947 240.654 39.664 242.105 42.352C243.598 44.9973 244.345 48.048 244.345 51.504ZM235.065 48.944C235.022 46.64 234.19 44.8053 232.569 43.44C230.947 42.032 228.963 41.328 226.617 41.328C224.398 41.328 222.521 42.0107 220.985 43.376C219.491 44.6987 218.574 46.5547 218.233 48.944H235.065ZM248.581 52.144C248.581 48.56 249.285 45.3813 250.693 42.608C252.143 39.8347 254.085 37.7013 256.517 36.208C258.991 34.7147 261.743 33.968 264.773 33.968C267.418 33.968 269.722 34.5013 271.685 35.568C273.69 36.6347 275.29 37.9787 276.485 39.6V34.544H285.509V70H276.485V64.816C275.333 66.48 273.733 67.8667 271.685 68.976C269.679 70.0427 267.354 70.576 264.709 70.576C261.722 70.576 258.991 69.808 256.517 68.272C254.085 66.736 252.143 64.5813 250.693 61.808C249.285 58.992 248.581 55.7707 248.581 52.144ZM276.485 52.272C276.485 50.096 276.058 48.24 275.205 46.704C274.351 45.1253 273.199 43.9307 271.749 43.12C270.298 42.2667 268.741 41.84 267.077 41.84C265.413 41.84 263.877 42.2453 262.469 43.056C261.061 43.8667 259.909 45.0613 259.013 46.64C258.159 48.176 257.733 50.0107 257.733 52.144C257.733 54.2773 258.159 56.1547 259.013 57.776C259.909 59.3547 261.061 60.5707 262.469 61.424C263.919 62.2773 265.455 62.704 267.077 62.704C268.741 62.704 270.298 62.2987 271.749 61.488C273.199 60.6347 274.351 59.44 275.205 57.904C276.058 56.3253 276.485 54.448 276.485 52.272Z" fill="white"/>
</svg>