<svg xmlns="http://www.w3.org/2000/svg" width="32" height="32" fill="#fff" viewBox="0 0 32 32"><path d="M19.9481 8.05741L16 5L12.0519 8.05741L9.83704 23.8981L16 27.4852L22.163 23.8981L19.9481 8.05741ZM16 24.4037V20.6722L13.063 16.1704L14.4593 9.55L16 8.37037L17.5407 9.55L17.5648 9.69444L16.7944 13.4019L19.0815 16.9167L20.1407 21.9722L16 24.4037Z"></path><path d="M7.98333 11.6686L6.20185 10.0557L4.42037 11.6686L3 19.926L6.05741 21.7075L6.20185 21.7797L6.37037 21.7075L9.42778 19.926L7.98333 11.6686Z"></path><path d="M24.0167 11.6686L25.7981 10.0557L27.5796 11.6686L29 19.926L25.9426 21.7075L25.7981 21.7797L25.6296 21.7075L22.5722 19.926L24.0167 11.6686Z"></path></svg>
