<svg xmlns="http://www.w3.org/2000/svg" width="32" height="32" fill="#fff" viewBox="0 -1 32 32"><path d="M25.7111 12.2222C25.4444 19.3556 21 20.0889 21 20.0889C22.2222 18.9111 23.7778 17.2 24.3111 13.5556C24.7778 10.4 24.3333 8.02222 21 6.8C21.6222 16.2222 18.2889 18.3778 18.2889 18.3778C19.3333 14.1333 20.1778 4 16 4C11.8222 4 12.6667 14.1333 13.7111 18.4C13.7111 18.4 10.3778 16.2222 11 6.82222C7.66667 8.02222 7.24444 10.4222 7.68889 13.5778C8.22222 17.2222 9.77778 18.9111 11 20.0889C11 20.0889 6.55555 19.3778 6.28889 12.2222C3.91111 14.4444 3.31111 19.5111 9.88889 23.5111C9.88889 24.2889 10.0444 24.8667 10.3556 25.3111C10.6667 25.7556 11.1111 26.0444 11.6222 26.1333C11.7556 26.1556 11.8889 26.1778 12 26.1778C12.4444 26.1778 12.8667 26.0444 13.2444 25.7778C13.4222 26.2667 13.6444 26.6667 13.9111 26.9778C14.4667 27.6444 15.1778 28 16 28C16.8222 28 17.5556 27.6444 18.0889 26.9778C18.3556 26.6444 18.5778 26.2444 18.7556 25.7778C19.1111 26.0444 19.5333 26.1778 20 26.1778C20.1333 26.1778 20.2667 26.1556 20.3778 26.1333C20.8889 26.0444 21.3556 25.7556 21.6444 25.3111C21.9556 24.8667 22.1111 24.2889 22.1111 23.5111C28.7111 19.4889 28.0889 14.4222 25.7111 12.2222Z"></path></svg>
