<svg
  xmlns="http://www.w3.org/2000/svg"
  width="32"
  height="32"
  fill="#fff" viewBox="-3.5 -3.5 31 31"
>
  <path
    d="M19.4036 12.5992L21.4016 22.6382L13.8315 18.2292L14.0313 14.0915C12.1843 10.6909 4.69257 3.9469 1.1776 1C9.73784 3.83988 15.3115 9.91607 17.0283 12.5992H19.4036ZM16.2069 14.5663L20.1584 20.852L15.2079 17.7091C14.8349 15.8099 15.7185 14.8225 16.2069 14.5663Z"
  />
  <path
    d="M9.70232 1.99486C11.7003 3.12539 16.1181 5.74368 17.8052 7.17266V9.09455L23 10.2251L20.669 5.20555L18.7154 5.56732C17.9606 4.75334 15.1013 2.89928 9.70232 1.99486Z"
  />
  <path
    d="M5.46216 18.8623L6.66095 16.5334C5.90616 14.5437 3.62846 10.5733 1 6.35868C2.49479 7.25557 6.51443 10.9848 8.41473 15.2898L10.7457 15.1994V23L5.46216 18.8623Z"
  />
</svg>
