<svg xmlns="http://www.w3.org/2000/svg" width="32" height="32" fill="#fff" viewBox="-0.5 -1 32 32"><path d="M23.6019 18.9398C21.4954 19.4722 19.5972 19.2639 17.7917 18.2917C19.5509 16.4167 21.4491 14.5648 22.375 14.3102C24.9907 13.6389 26.2639 14.4491 28 16.4398C28 16.4398 26.4491 8.15278 19.5509 6C19.5509 6 20.9398 9.35648 19.4583 11.6713C18.1389 13.7546 16.8194 15.3981 15.4769 16.625C14.1343 15.3981 12.8148 13.7315 11.4954 11.6713C10.0139 9.35648 11.4028 6 11.4028 6C4.55093 8.17593 3 16.463 3 16.463C4.73611 14.4722 6.03241 13.662 8.625 14.3333C9.55093 14.5648 14.3194 20.1667 15.9167 21.7639C13.5556 21.8102 11.8426 19.9583 10.7315 19.1482C9.66667 19.3102 8.55556 19.2407 7.39815 18.9398L15.5 26.6019L23.6019 18.9398Z"></path></svg>
