<svg xmlns="http://www.w3.org/2000/svg" width="32" height="32" fill="#fff" viewBox="0 -1 32 32"><path d="M16 23.2444C11.1111 23.2444 5.8 18.7999 5.06667 17.3777V19.111C5.06667 21.6888 6.51111 24.0444 8.82223 25.1999L12.9556 27.2666C14.8889 28.2221 17.1333 28.2221 19.0667 27.2666L23.2 25.1999C25.5111 24.0444 26.9556 21.6888 26.9556 19.111V17.3555C26.2 18.7999 20.8889 23.2444 16 23.2444Z"></path><path d="M25.2667 5.15541C23.4222 3.46652 20.4222 4.11097 20.4222 4.11097C20.4222 4.11097 22.8444 7.4443 18.9333 9.02208C17 8.66652 15 8.66652 13.0667 9.02208C9.15556 7.4443 11.5778 4.11097 11.5778 4.11097C11.5778 4.11097 8.57778 3.46652 6.73334 5.15541C4.88889 6.8443 4.22222 8.68875 4.22222 8.68875C4.15556 8.86652 4.08889 9.0443 4.02222 9.22208C4.33334 9.02208 4.73334 8.73319 5.26667 8.28875C6.88889 6.88875 9.06667 6.39986 8.4 9.06652C9.64445 8.39986 10.3111 8.99986 10.6667 9.66652C10.0444 9.88875 9.42222 10.1554 8.8 10.4443C6.48889 11.5999 5.04445 13.9554 5.04445 16.5332V17.3554C5.68889 17.4221 6.42222 17.7332 7.26667 18.1332C7.91111 16.0221 10.2 15.5554 10.2 15.5554C9.77778 18.2887 11 19.6221 12.0889 20.2665C13.2889 20.6443 14.5778 20.911 16 20.911C17.4 20.911 18.7111 20.6443 19.9111 20.2665C21 19.6221 22.2222 18.2887 21.8 15.5554C21.8 15.5554 24.0889 16.0221 24.7333 18.1332C25.5778 17.7332 26.3111 17.4221 26.9556 17.3554V16.5332C26.9556 13.9554 25.5111 11.5999 23.2 10.4443C22.6 10.1332 21.9778 9.88875 21.3333 9.66652C21.6889 8.99986 22.3556 8.37764 23.6 9.06652C22.9333 6.39986 25.1111 6.88875 26.7333 8.28875C27.2444 8.73319 27.6444 9.0443 27.9778 9.22208C27.9111 9.0443 27.8667 8.86652 27.7778 8.68875C27.7778 8.68875 27.1111 6.8443 25.2667 5.15541ZM11.7111 14.2443C10.8889 13.6221 10.4444 12.6665 10.4889 11.711C11.4 11.4221 12.4444 11.5554 13.2889 12.1776C14.1111 12.7999 14.5556 13.7554 14.5111 14.7332C13.5778 15.0221 12.5333 14.8887 11.7111 14.2443ZM21.5111 11.711C21.5556 12.6665 21.1111 13.6221 20.2889 14.2443C19.4667 14.8665 18.4222 14.9999 17.4889 14.711C17.4667 13.7554 17.8889 12.7776 18.7111 12.1554C19.5556 11.5554 20.6 11.3999 21.5111 11.711Z"></path></svg>
